<?xml version="1.0" standalone="no"?>
<!DOCTYPE svg PUBLIC "-//W3C//DTD SVG 1.1//EN" "http://www.w3.org/Graphics/SVG/1.1/DTD/svg11.dtd">
<svg width="180" height="180" version="1.1" xmlns="http://www.w3.org/2000/svg">
  <title>11 cells diameter theta maze</title>
  <desc>11 cells diameter theta maze generated by The Maze Generator Website (https://www.mazegenerator.net/).</desc>
  <g fill="none" stroke="#000000" stroke-width="2" stroke-linecap="square">
    <path d="M 74.029437251522864,107.97056274847714 A 24,24 0 1,1 91,115" />
    <path d="M 54.044818699548536,106.30733729460361 A 40,40 0 0,1 127.95518130045147,75.6926627053964" />
    <path d="M 127.95518130045147,106.30733729460359 A 40,40 0 0,1 106.3073372946036,127.95518130045147" />
    <path d="M 75.692662705396415,127.95518130045147 A 40,40 0 0,1 62.715728752538105,119.2842712474619" />
    <path d="M 51.402020253553331,51.402020253553346 A 56,56 0 0,1 91,35" />
    <path d="M 112.43027221244503,39.262746179367944 A 56,56 0 0,1 130.59797974644667,51.402020253553339" />
    <path d="M 147,91 A 56,56 0 0,1 130.59797974644667,130.59797974644664" />
    <path d="M 112.43027221244503,142.73725382063205 A 56,56 0 0,1 91,147" />
    <path d="M 51.402020253553346,130.59797974644667 A 56,56 0 0,1 39.262746179367952,112.43027221244506" />
    <path d="M 35,91.000000000000014 A 56,56 0 0,1 39.262746179367944,69.569727787554967" />
    <path d="M 63.446792869713491,24.480673659187374 A 72,72 0 0,1 131.00105677741135,31.134187914216739" />
    <path d="M 157.51932634081265,63.446792869713533 A 72,72 0 0,1 118.55320713028647,157.51932634081265" />
    <path d="M 91.000000000000014,163 A 72,72 0 0,1 76.953496814838758,161.61654018903261" />
    <path d="M 63.446792869713548,157.51932634081265 A 72,72 0 0,1 20.383459810967409,76.953496814838758" />
    <path d="M 24.48067365918736,63.446792869713519 A 72,72 0 0,1 50.998943222588643,31.134187914216746" />
    <path d="M 108.16794833741929,4.6908953245157221 A 88,88 0 1,1 91,3" />
  </g>
  <g fill="none" stroke="#000000" stroke-width="2" stroke-linecap="butt">
    <line x1="108.16794833741929" y1="4.6908953245157221" x2="105.04650318516123" y2="20.383459810967409" />
    <line x1="153.22539674441617" y1="28.774603255583813" x2="130.59797974644664" y2="51.402020253553339" />
    <line x1="164.16932588262398" y1="42.109819494275" x2="150.86581208578326" y2="50.998943222588636" />
    <line x1="142.73725382063205" y1="69.569727787554967" x2="127.95518130045147" y2="75.6926627053964" />
    <line x1="147" y1="91" x2="115" y2="91" />
    <line x1="130.59797974644667" y1="130.59797974644664" x2="119.2842712474619" y2="119.2842712474619" />
    <line x1="118.55320713028647" y1="157.51932634081265" x2="112.43027221244503" y2="142.73725382063205" />
    <line x1="108.16794833741932" y1="177.30910467548426" x2="105.04650318516126" y2="161.61654018903261" />
    <line x1="91.000000000000014" y1="163" x2="91" y2="147" />
    <line x1="91" y1="131" x2="91" y2="115" />
    <line x1="73.83205166258071" y1="177.30910467548426" x2="76.953496814838758" y2="161.61654018903261" />
    <line x1="63.446792869713548" y1="157.51932634081265" x2="75.692662705396415" y2="127.95518130045147" />
    <line x1="62.7157287525381" y1="119.2842712474619" x2="74.029437251522864" y2="107.97056274847714" />
    <line x1="39.262746179367952" y1="112.43027221244506" x2="54.044818699548543" y2="106.30733729460361" />
    <line x1="19" y1="91.000000000000014" x2="35" y2="91.000000000000014" />
    <line x1="4.6908953245157221" y1="73.83205166258071" x2="20.383459810967409" y2="76.953496814838758" />
    <line x1="51.402020253553331" y1="51.402020253553346" x2="62.715728752538091" y2="62.715728752538105" />
    <line x1="42.109819494275008" y1="17.83067411737602" x2="50.998943222588643" y2="31.134187914216746" />
    <line x1="63.446792869713491" y1="24.480673659187374" x2="69.569727787554939" y2="39.262746179367952" />
  </g>
</svg>
